<svg width="24" height="24" viewBox="0 0 24 24" fill="none" xmlns="http://www.w3.org/2000/svg">
<path fill-rule="evenodd" clip-rule="evenodd" d="M6 6C5.38594 6 5 6.45157 5 6.875V18.125C5 18.5484 5.38594 19 6 19H18C18.6141 19 19 18.5484 19 18.125V6.875C19 6.45157 18.6141 6 18 6H6ZM3 6.875C3 5.22737 4.40492 4 6 4H18C19.5951 4 21 5.22737 21 6.875V18.125C21 19.7726 19.5951 21 18 21H6C4.40492 21 3 19.7726 3 18.125V6.875Z" fill="#999999"/>
<path fill-rule="evenodd" clip-rule="evenodd" d="M16 2C16.5523 2 17 2.44772 17 3V7C17 7.55228 16.5523 8 16 8C15.4477 8 15 7.55228 15 7V3C15 2.44772 15.4477 2 16 2Z" fill="#999999"/>
<path fill-rule="evenodd" clip-rule="evenodd" d="M8 2C8.55228 2 9 2.44772 9 3V7C9 7.55228 8.55228 8 8 8C7.44772 8 7 7.55228 7 7V3C7 2.44772 7.44772 2 8 2Z" fill="#999999"/>
<path fill-rule="evenodd" clip-rule="evenodd" d="M3 11C3 10.4477 3.44772 10 4 10H20C20.5523 10 21 10.4477 21 11C21 11.5523 20.5523 12 20 12H4C3.44772 12 3 11.5523 3 11Z" fill="#999999"/>
</svg>
