<svg width="24" height="24" viewBox="0 0 24 24" fill="none" xmlns="http://www.w3.org/2000/svg">
<g clip-path="url(#clip0_815_6895)">
<path d="M10.5394 14.625L8.4094 12.495L7.3494 13.555L10.5294 16.735L16.5294 10.735L15.4694 9.67503L10.5394 14.625ZM17.3364 1.90503L21.9434 5.75003L20.6634 7.28503L16.0534 3.44203L17.3364 1.90503ZM6.6624 1.90503L7.9444 3.44103L3.3364 7.28503L2.0564 5.74903L6.6624 1.90503ZM11.9994 4.09503C7.0294 4.09503 2.9994 8.12503 2.9994 13.095C2.9994 18.065 7.0294 22.095 11.9994 22.095C16.9694 22.095 20.9994 18.065 20.9994 13.095C20.9994 8.12503 16.9694 4.09503 11.9994 4.09503ZM11.9994 20.095C8.1394 20.095 4.9994 16.955 4.9994 13.095C4.9994 9.23503 8.1394 6.09503 11.9994 6.09503C15.8594 6.09503 18.9994 9.23503 18.9994 13.095C18.9994 16.955 15.8594 20.095 11.9994 20.095Z" fill="#999999"/>
</g>
<defs>
<clipPath id="clip0_815_6895">
<rect width="24" height="24" fill="white"/>
</clipPath>
</defs>
</svg>
