<svg width="22" height="22" viewBox="0 0 22 22" fill="none" xmlns="http://www.w3.org/2000/svg">
<path fill-rule="evenodd" clip-rule="evenodd" d="M10.5633 3.85263C10.8671 3.60222 11.3066 3.60493 11.6073 3.85905L18.0444 9.29794C18.2276 9.45276 18.3333 9.68045 18.3333 9.92033V17.5185C18.3333 17.9685 17.9685 18.3333 17.5185 18.3333H4.48144C4.03143 18.3333 3.66663 17.9685 3.66663 17.5185V9.92033C3.66663 9.67694 3.77543 9.4463 3.96325 9.29152L10.5633 3.85263ZM5.29626 10.3047V16.7037H16.7037V10.2986L11.0749 5.54266L5.29626 10.3047Z" fill="#FF5100"/>
<path fill-rule="evenodd" clip-rule="evenodd" d="M8.25 13.7531C8.25 13.2452 8.56449 12.8334 8.95243 12.8334H13.0476C13.4355 12.8334 13.75 13.2452 13.75 13.7531V17.4136C13.75 17.9216 13.4355 18.3334 13.0476 18.3334C12.6596 18.3334 12.3451 17.9216 12.3451 17.4136V14.6728H9.65485V17.4136C9.65485 17.9216 9.34037 18.3334 8.95243 18.3334C8.56449 18.3334 8.25 17.9216 8.25 17.4136V13.7531Z" fill="#FF5100"/>
</svg>
