<svg width="63" height="70" viewBox="0 0 63 70" fill="none" xmlns="http://www.w3.org/2000/svg">
<g filter="url(#filter0_f_1483_16719)">
<ellipse cx="31.5" cy="60.5615" rx="27.5" ry="4.5" fill="#666666" fill-opacity="0.3"/>
</g>
<path d="M54 8.63155V56.5112C54 58.4753 52.4398 60.05 50.4939 60.05H11.5061C9.57774 60.05 8 58.4753 8 56.5112V8.63155C8 6.66753 9.57774 5.09277 11.5061 5.09277H50.4939C52.4398 5.09277 54 6.66753 54 8.63155Z" fill="url(#paint0_linear_1483_16719)"/>
<path d="M45.6381 26.9975C45.6381 31.3679 44.411 34.6943 42.2547 38.9585C41.2906 40.8872 40.9049 42.9043 40.5368 44.6914C40.0459 47.2924 39.4323 50.5304 36.0489 50.5304C32.9811 50.5304 32.1046 46.9385 31.4384 44.3375C31.3157 43.8421 31.1755 43.1343 30.9826 42.5504C30.8249 43.1343 30.632 43.8244 30.5268 44.3375C29.9133 46.9385 29.0368 50.5304 25.9163 50.5304C22.5855 50.5304 21.9194 47.2747 21.4285 44.6914C21.0779 42.9043 20.6922 40.9049 19.7456 38.9585C17.5543 34.6943 16.3271 31.3679 16.3271 26.9975C16.3271 22.114 19.5528 18.876 24.3386 18.876C26.7227 18.876 28.2479 19.4245 29.4049 19.8138C30.0535 20.0438 30.5093 20.203 30.9826 20.203C31.456 20.203 31.9468 20.0438 32.5954 19.8138C33.6999 19.4245 35.2425 18.876 37.6618 18.876C42.4476 18.876 45.6381 22.1317 45.6381 26.9975Z" fill="white"/>
<path d="M30.0711 38.6933C29.5978 38.6933 29.142 38.4987 28.8089 38.1448L24.0757 33.1198C23.4095 32.412 23.427 31.2973 24.1283 30.6249C24.8295 29.9525 25.9339 29.9702 26.6001 30.678L30.0886 34.3583L37.2235 26.98C37.9072 26.2899 39.0117 26.2722 39.6953 26.9446C40.3966 27.6346 40.3966 28.7494 39.7304 29.4394L31.3333 38.1271C31.0002 38.4633 30.5444 38.6579 30.0711 38.6579V38.6933Z" fill="#F5911E"/>
<path opacity="0.2" d="M54 8.63134V8.93214L42.3422 20.6986L36.8026 26.2899L32.5602 30.5718L17.1334 46.1424L8 55.3609V8.63134C8 6.66732 9.57774 5.09257 11.5061 5.09257H19.6753V4.4202C19.6753 3.85399 20.1311 3.39395 20.6745 3.39395H23.4794V1.07605C23.4794 0.492152 23.9352 0.0498047 24.4962 0.0498047H37.5038C38.0648 0.0498047 38.5206 0.492152 38.5206 1.07605V3.39395H41.3255C41.8864 3.39395 42.3422 3.85399 42.3422 4.4202V5.09257H50.4939C52.4398 5.09257 54 6.66732 54 8.63134Z" fill="white"/>
<path d="M42.3422 4.4202V8.7552C42.3422 9.32141 41.8864 9.78145 41.3254 9.78145H20.6745C20.1311 9.78145 19.6753 9.32141 19.6753 8.7552V4.4202C19.6753 3.85399 20.1311 3.39395 20.6745 3.39395H23.4794V1.07605C23.4794 0.492152 23.9352 0.0498047 24.4962 0.0498047H37.5038C38.0648 0.0498047 38.5206 0.492152 38.5206 1.07605V3.39395H41.3254C41.8864 3.39395 42.3422 3.85399 42.3422 4.4202Z" fill="#24B6E2"/>
<defs>
<filter id="filter0_f_1483_16719" x="0" y="52.0615" width="63" height="17" filterUnits="userSpaceOnUse" color-interpolation-filters="sRGB">
<feFlood flood-opacity="0" result="BackgroundImageFix"/>
<feBlend mode="normal" in="SourceGraphic" in2="BackgroundImageFix" result="shape"/>
<feGaussianBlur stdDeviation="2" result="effect1_foregroundBlur_1483_16719"/>
</filter>
<linearGradient id="paint0_linear_1483_16719" x1="31" y1="58.4222" x2="31" y2="12.8604" gradientUnits="userSpaceOnUse">
<stop stop-color="#4DC3E3"/>
<stop offset="1" stop-color="#94DDFF"/>
</linearGradient>
</defs>
</svg>
