<svg width="71" height="29" viewBox="0 0 71 29" fill="none" xmlns="http://www.w3.org/2000/svg">
<path d="M4.63867 13.1748H5.49805C5.46387 12.1006 4.47754 11.2998 3.10547 11.2998C1.7334 11.2998 0.668945 12.0859 0.673828 13.2822C0.668945 14.2393 1.3623 14.8057 2.4707 15.1279L3.33984 15.3623C4.08203 15.5723 4.73633 15.8359 4.73633 16.5244C4.73633 17.2959 4.00391 17.7988 3.02734 17.7939C2.1875 17.7988 1.4502 17.4229 1.37695 16.6318H0.478516C0.561523 17.8037 1.50391 18.5898 3.02734 18.5947C4.66797 18.5898 5.5957 17.6963 5.5957 16.5439C5.5957 15.2207 4.35059 14.7861 3.59375 14.5908L2.89062 14.3955C2.35352 14.2637 1.52832 13.9854 1.52344 13.2432C1.52832 12.5693 2.13867 12.0811 3.07617 12.0811C3.9209 12.0811 4.56543 12.4814 4.63867 13.1748ZM12.6797 13.624H13.5586C13.2949 12.1543 12.1377 11.2998 10.707 11.2998C8.89062 11.2998 7.57715 12.6963 7.58203 14.9326C7.57715 17.1689 8.89062 18.5654 10.707 18.5654C12.1426 18.5654 13.3047 17.6963 13.5586 16.251H12.6797C12.4697 17.2178 11.6396 17.7402 10.707 17.7451C9.42773 17.7402 8.43652 16.7539 8.43164 14.9326C8.43652 13.1064 9.42773 12.1201 10.707 12.1201C11.6396 12.1201 12.4746 12.6475 12.6797 13.624ZM15.7891 18.4678H16.668V15.7236H18.2012C18.2598 15.7236 18.3184 15.7236 18.3721 15.7188L19.8516 18.4678H20.877L19.2852 15.5576C20.1836 15.2451 20.6035 14.5127 20.6035 13.5752C20.6035 12.3154 19.8467 11.3975 18.1914 11.3975H15.7891V18.4678ZM16.668 14.9229V12.1787H18.1523C19.29 12.1787 19.7295 12.7305 19.7344 13.5752C19.7295 14.415 19.29 14.9229 18.1621 14.9229H16.668ZM28.8496 14.9326C28.8545 12.6963 27.5361 11.2998 25.7246 11.2998C23.9082 11.2998 22.5947 12.6963 22.5996 14.9326C22.5947 17.1689 23.9082 18.5654 25.7246 18.5654C27.5361 18.5654 28.8545 17.1689 28.8496 14.9326ZM23.4492 14.9326C23.4541 13.1064 24.4453 12.1201 25.7246 12.1201C27.0039 12.1201 27.9951 13.1064 28 14.9326C27.9951 16.7539 27.0039 17.7402 25.7246 17.7451C24.4453 17.7402 23.4541 16.7539 23.4492 14.9326ZM31.1387 18.4678H35.2988V17.6865H32.0176V11.3975H31.1387V18.4678ZM37.4707 18.4678H41.6309V17.6865H38.3496V11.3975H37.4707V18.4678Z" fill="#999999"/>
<path fill-rule="evenodd" clip-rule="evenodd" d="M61.6667 19.1341V9.80078C61.6667 7.22345 59.5773 5.13411 57 5.13411C54.4227 5.13411 52.3333 7.22345 52.3333 9.80078V19.1341C52.3333 21.7114 54.4227 23.8008 57 23.8008C59.5773 23.8008 61.6667 21.7114 61.6667 19.1341ZM57 2.80078C53.134 2.80078 50 5.93479 50 9.80078V19.1341C50 23.0001 53.134 26.1341 57 26.1341C60.866 26.1341 64 23.0001 64 19.1341V9.80078C64 5.93479 60.866 2.80078 57 2.80078Z" fill="#999999"/>
<path d="M59.2333 14.5682L57 16.8015L54.7667 14.5682" stroke="#999999" stroke-linecap="round" stroke-linejoin="round"/>
<path d="M57 16.8014V12.1348" stroke="#999999" stroke-linecap="round"/>
</svg>
