<svg width="38" height="38" viewBox="0 0 38 38" fill="none" xmlns="http://www.w3.org/2000/svg">
<g clip-path="url(#clip0_1202_9388)">
<path d="M29.3716 12.7795C29.3716 14.0384 29.0086 15.2065 28.3735 16.2045C28.1921 16.4994 27.9766 16.7829 27.7384 17.0438C26.5703 18.348 24.8692 19.1759 22.9866 19.1759C19.4595 19.1759 16.6016 16.3066 16.6016 12.7795C16.6016 9.25247 19.4595 6.39453 22.9866 6.39453C26.5136 6.39453 29.3716 9.26381 29.3716 12.7795Z" fill="white"/>
<path d="M24.6083 15.8978C24.6083 15.8298 24.6083 15.7504 24.5856 15.637C24.5743 15.5576 24.5516 15.4895 24.5176 15.4101C24.4836 15.3421 24.4495 15.2741 24.3928 15.1833C24.3475 15.1153 24.2908 15.0586 24.2567 15.0246C24.2 14.9678 24.132 14.9111 24.0639 14.8658C23.9959 14.8204 23.9278 14.7864 23.8485 14.7524C23.7804 14.7183 23.701 14.6957 23.6103 14.673C23.4515 14.639 23.2814 14.639 23.1 14.673C23.0319 14.6843 22.9525 14.7183 22.8845 14.741C22.8164 14.7637 22.7484 14.7977 22.669 14.8544C22.6009 14.8998 22.5442 14.9565 22.4875 15.0019C22.4195 15.0699 22.3628 15.138 22.3288 15.1947C22.2834 15.2627 22.2494 15.3421 22.2153 15.4101C22.1813 15.4895 22.1586 15.5689 22.136 15.6823C22.1246 15.7617 22.1133 15.8298 22.1133 15.8978C22.1133 16.2267 22.2494 16.5556 22.4762 16.7824C22.5216 16.8391 22.5896 16.8845 22.6803 16.9525C22.7484 16.9979 22.8164 17.0319 22.8845 17.0546C22.9639 17.0886 23.0546 17.1113 23.1 17.1226C23.1907 17.1453 23.2701 17.1453 23.3608 17.1453C23.4515 17.1453 23.5423 17.1453 23.5876 17.1226C23.667 17.1113 23.7577 17.0886 23.8371 17.0546C23.9278 17.0206 24.0072 16.9752 24.098 16.9072C24.1547 16.8618 24.2114 16.8164 24.2567 16.7824C24.3361 16.703 24.3928 16.601 24.4495 16.4989C24.4722 16.4535 24.5176 16.4195 24.5289 16.3741C24.5856 16.2267 24.6196 16.0566 24.6196 15.8865L24.6083 15.8978Z" fill="url(#paint0_linear_1202_9388)" fill-opacity="0.5"/>
<path d="M32.9551 19.913L29.8931 16.8622C30.6189 15.6487 31.0158 14.2424 31.0158 12.7794C31.0158 8.35645 27.4094 4.75 22.9864 4.75C19.3913 4.75 16.2271 7.16564 15.2631 10.6247L15.1384 10.5793V10.5453L14.8549 10.4545C14.7074 10.4092 14.5486 10.3525 14.3785 10.2958L14.3105 10.2731C13.4145 9.95553 12.3031 9.56994 10.5112 9.56994C7.00686 9.56994 4.75 11.8495 4.75 15.3765C4.75 18.6768 5.70265 21.2172 7.36978 24.4834C8.17499 26.0825 8.49254 27.6929 8.77606 29.1332C9.18434 31.254 9.58128 33.25 11.7588 33.25C13.7661 33.25 14.3332 30.9024 14.8435 28.827C15.2518 27.1372 15.5693 26.2866 15.7735 26.2866C15.9096 26.2866 16.1818 26.7289 16.7034 28.827C17.2138 30.9024 17.7808 33.25 19.7882 33.25C21.9657 33.25 22.3626 31.254 22.7709 29.1219C23.0544 27.6929 23.372 26.0825 24.1772 24.4834C24.6762 23.4967 25.0618 22.6802 25.3907 21.909L26.1619 20.1511C27.1032 19.7428 27.9424 19.1758 28.6229 18.4726L31.5035 21.3533C31.7076 21.5574 31.9685 21.6481 32.2293 21.6481C32.4901 21.6481 32.751 21.5574 32.9551 21.3533C33.3521 20.9563 33.3521 20.3099 32.9551 19.913V19.913ZM28.3734 16.2044C28.1919 16.4993 27.9764 16.7828 27.7383 17.0437C26.5701 18.3479 24.869 19.1758 22.9864 19.1758C19.4593 19.1758 16.6014 16.3065 16.6014 12.7794C16.6014 9.25239 19.4593 6.39445 22.9864 6.39445C26.5134 6.39445 29.3714 9.26373 29.3714 12.7794C29.3714 14.0383 29.0085 15.2064 28.3734 16.2044V16.2044Z" fill="url(#paint1_linear_1202_9388)"/>
<path d="M7.19979 18.2236C6.92761 18.2236 6.68944 18.0308 6.64408 17.7586C6.50799 16.9874 6.43994 16.2162 6.43994 15.3883C6.43994 13.0634 7.59673 12.0654 8.56071 11.6458C8.84424 11.521 9.18447 11.6458 9.30922 11.9406C9.43397 12.2242 9.30922 12.5644 9.01435 12.6891C8.06171 13.1088 7.57404 14.016 7.57404 15.3883C7.57404 16.1481 7.63075 16.8626 7.7555 17.5658C7.81221 17.872 7.60807 18.1668 7.29052 18.2236C7.2565 18.2236 7.22247 18.2236 7.18845 18.2236H7.19979Z" fill="white"/>
<path d="M19.1302 11.8947C19.1643 11.9855 19.2096 12.0762 19.289 12.1896C19.3457 12.2577 19.4024 12.337 19.4818 12.4278C19.5612 12.4958 19.6406 12.5752 19.7313 12.6319C19.822 12.6886 19.9014 12.734 20.0035 12.768C20.0942 12.802 20.1849 12.836 20.3324 12.8701C20.4231 12.8814 20.5252 12.8928 20.6159 12.8928C20.7066 12.8928 20.8087 12.8928 20.9561 12.8587C21.0469 12.836 21.1376 12.802 21.2397 12.768C21.3191 12.734 21.4211 12.6886 21.4892 12.6319C21.5912 12.5639 21.682 12.4958 21.75 12.4164C21.7954 12.3711 21.8521 12.303 21.9541 12.1669C22.0109 12.0762 22.0562 11.9855 22.1016 11.8834C22.1356 11.804 22.181 11.6793 22.1923 11.5999C22.215 11.4978 22.2263 11.3844 22.2263 11.2596C22.2263 11.1349 22.215 11.0328 22.2037 10.9534C22.181 10.8627 22.1583 10.7606 22.1129 10.6472C22.0676 10.5225 22.0109 10.4317 21.9541 10.3524C21.8974 10.273 21.8294 10.1822 21.7727 10.1255C21.7046 10.0575 21.6253 9.98945 21.5345 9.93274C21.4551 9.87604 21.3531 9.81933 21.2397 9.77397C21.1489 9.73995 21.0582 9.70592 20.9335 9.68324C20.718 9.63788 20.5025 9.64922 20.2757 9.68324C20.1849 9.70592 20.0829 9.73995 20.0035 9.77397C19.9128 9.80799 19.822 9.85336 19.6973 9.93274C19.6179 9.98945 19.5498 10.0462 19.4705 10.1255C19.1643 10.4317 18.9941 10.8514 18.9941 11.271C18.9941 11.3617 19.0055 11.4524 19.0395 11.6226C19.0622 11.7133 19.0849 11.804 19.1302 11.9061V11.8947Z" fill="url(#paint2_linear_1202_9388)"/>
<path d="M25.867 10.4093C25.867 10.4093 25.7876 10.432 25.7309 10.4546C25.6856 10.4773 25.6289 10.5 25.5835 10.534C25.5495 10.5567 25.5041 10.5907 25.4701 10.6248C25.3113 10.7722 25.2319 10.9877 25.2319 11.2031C25.2319 11.4186 25.3227 11.6228 25.4814 11.7929C25.5041 11.8156 25.5381 11.8382 25.6062 11.8949C25.6516 11.9176 25.6969 11.9517 25.7423 11.963C25.799 11.9857 25.8557 12.0084 25.8784 12.0084C25.9351 12.0197 25.9918 12.031 26.0485 12.031C26.264 12.031 26.4794 11.9403 26.6269 11.7929C26.7857 11.6341 26.865 11.43 26.865 11.2145C26.865 10.999 26.7743 10.7835 26.6269 10.6361C26.4341 10.4433 26.1506 10.3526 25.867 10.4093Z" fill="url(#paint3_linear_1202_9388)"/>
</g>
<defs>
<linearGradient id="paint0_linear_1202_9388" x1="22.0906" y1="15.8978" x2="24.6083" y2="15.8978" gradientUnits="userSpaceOnUse">
<stop stop-color="#38AFFF"/>
<stop offset="1" stop-color="#2C8EFF"/>
</linearGradient>
<linearGradient id="paint1_linear_1202_9388" x1="4.75" y1="19.0057" x2="33.25" y2="19.0057" gradientUnits="userSpaceOnUse">
<stop stop-color="#38AFFF"/>
<stop offset="1" stop-color="#2C68FF"/>
</linearGradient>
<linearGradient id="paint2_linear_1202_9388" x1="19.0055" y1="11.2596" x2="22.2377" y2="11.2596" gradientUnits="userSpaceOnUse">
<stop stop-color="#38AFFF"/>
<stop offset="1" stop-color="#2C8EFF"/>
</linearGradient>
<linearGradient id="paint3_linear_1202_9388" x1="25.2206" y1="11.2031" x2="26.8537" y2="11.2031" gradientUnits="userSpaceOnUse">
<stop stop-color="#38AFFF"/>
<stop offset="1" stop-color="#2C8EFF"/>
</linearGradient>
<clipPath id="clip0_1202_9388">
<rect width="28.5" height="28.5" fill="white" transform="translate(4.75 4.75)"/>
</clipPath>
</defs>
</svg>
