<svg width="38" height="38" viewBox="0 0 38 38" fill="none" xmlns="http://www.w3.org/2000/svg">
<g clip-path="url(#clip0_1202_9397)">
<path d="M3.1665 19.3931C3.1665 18.8322 3.60968 18.3834 4.16364 18.3732C4.71761 18.3732 5.18092 18.8118 5.18092 19.3829C5.18092 19.7092 5.20107 20.0356 5.23128 20.3517C5.27157 20.9127 4.86869 21.4022 4.31472 21.4532C3.76076 21.5042 3.2773 21.086 3.22694 20.5251C3.19672 20.158 3.17658 19.7908 3.17658 19.4135H3.1665V19.3931ZM4.32479 13.2841C4.32479 13.1515 4.35501 13.0189 4.40537 12.8864C4.54638 12.5396 4.69746 12.2031 4.86869 11.8767C5.12049 11.377 5.72482 11.173 6.21835 11.428C6.71188 11.6829 6.91332 12.2948 6.66152 12.7946C6.52051 13.0801 6.3795 13.3759 6.25864 13.6819C6.04712 14.202 5.45287 14.4468 4.93919 14.2224C4.55645 14.0592 4.32479 13.6819 4.32479 13.2841ZM4.97948 26.3689C4.97948 26.012 5.17085 25.655 5.50323 25.4714C5.98669 25.2063 6.60109 25.3797 6.87303 25.8794C7.02412 26.1649 7.18527 26.4403 7.35649 26.7157C7.65866 27.195 7.51765 27.8171 7.05433 28.1231C6.58094 28.429 5.96655 28.2863 5.66438 27.8171C5.46294 27.501 5.28164 27.1848 5.10035 26.8585C5.01977 26.7055 4.97948 26.5321 4.97948 26.3689ZM8.59536 7.5015C8.59536 7.20574 8.71623 6.92018 8.95796 6.71621C9.23998 6.48164 9.53207 6.25727 9.82416 6.0329C10.2774 5.70655 10.9019 5.80853 11.2343 6.26747C11.5566 6.72641 11.4558 7.35872 11.0026 7.69528C10.7407 7.88905 10.4889 8.08282 10.2371 8.28679C9.80401 8.64375 9.16947 8.58255 8.81695 8.15421C8.66587 7.96044 8.58529 7.73607 8.58529 7.5015H8.59536ZM9.79394 31.7232C9.79394 31.5294 9.8443 31.3356 9.96517 31.1623C10.2774 30.6931 10.9019 30.5707 11.3652 30.8767C11.6271 31.0603 11.899 31.2235 12.181 31.3866C12.6645 31.662 12.8357 32.2943 12.5537 32.7736C12.2817 33.2632 11.6573 33.4366 11.1738 33.151C10.8515 32.9674 10.5393 32.7736 10.2371 32.5595C9.94502 32.3657 9.79394 32.0393 9.79394 31.713V31.7232ZM15.0214 4.36033C15.0214 3.8912 15.3437 3.46285 15.8271 3.36087C16.1796 3.28948 16.5422 3.21809 16.9048 3.16709C17.4588 3.08551 17.9624 3.47305 18.043 4.03398C18.1236 4.5949 17.7408 5.10483 17.1869 5.18642C16.8646 5.22721 16.5523 5.2884 16.2401 5.3496C15.6962 5.46178 15.1624 5.11503 15.0516 4.5643C15.0415 4.49291 15.0314 4.42152 15.0314 4.35013L15.0214 4.36033ZM22.1524 4.6153C22.1524 4.52351 22.1625 4.43172 22.1927 4.33993C22.3438 3.79941 22.8977 3.48325 23.4316 3.63623C23.7841 3.73822 24.1366 3.8504 24.4791 3.97278C25.0028 4.16656 25.2748 4.74788 25.0834 5.27821C24.892 5.80853 24.3179 6.0839 23.7942 5.89012C23.492 5.77794 23.1898 5.68615 22.8877 5.59436C22.4445 5.47198 22.1524 5.05384 22.1524 4.6153ZM23.6229 33.1714C23.6229 32.7634 23.8647 32.3861 24.2575 32.2229C24.5596 32.1005 24.8517 31.968 25.1337 31.8252C25.6373 31.5804 26.2417 31.7946 26.4834 32.2943C26.7251 32.8042 26.5136 33.4162 26.0201 33.6609C25.6877 33.8241 25.3553 33.9771 25.0129 34.1097C24.4992 34.3238 23.9049 34.0689 23.7035 33.5487C23.6531 33.4264 23.633 33.2938 23.633 33.1612L23.6229 33.1714ZM28.3568 8.20521C28.3568 7.95024 28.4475 7.69528 28.6288 7.5015C29.0115 7.09356 29.646 7.07316 30.0489 7.46071C30.3108 7.71567 30.5727 7.98084 30.8245 8.2562C31.1971 8.67434 31.177 9.31685 30.764 9.6942C30.3511 10.0716 29.7165 10.041 29.3439 9.63301C29.1324 9.39844 28.9007 9.16387 28.669 8.93951C28.4575 8.73553 28.3568 8.47037 28.3568 8.19501V8.20521ZM29.4245 28.9696C29.4245 28.735 29.505 28.5004 29.6662 28.3067C29.8777 28.0619 30.0691 27.8069 30.2604 27.5418C30.5928 27.093 31.2274 26.991 31.6705 27.3276C32.1137 27.6641 32.2144 28.3067 31.882 28.7554C31.6605 29.0512 31.4389 29.3469 31.1971 29.6223C30.8345 30.0506 30.2 30.1016 29.777 29.7345C29.5453 29.5305 29.4245 29.2449 29.4245 28.9594V28.9696ZM32.2044 14.2836C32.2044 13.8552 32.4662 13.4677 32.8893 13.3147C33.413 13.1311 33.9871 13.4167 34.1684 13.947C34.2893 14.2938 34.39 14.6507 34.4907 15.0077C34.6317 15.5482 34.3094 16.1091 33.7756 16.2519C33.2418 16.3947 32.6878 16.0683 32.5468 15.5278C32.4662 15.2116 32.3756 14.9057 32.2648 14.5997C32.2245 14.4875 32.2144 14.3754 32.2144 14.2734L32.2044 14.2836ZM32.6274 22.5036C32.6274 22.4323 32.6274 22.3507 32.6475 22.2793C32.718 21.9631 32.7785 21.647 32.8288 21.3206C32.9094 20.7597 33.4231 20.3823 33.977 20.4639C34.531 20.5455 34.9037 21.0656 34.8231 21.6266C34.7627 21.9937 34.7022 22.3609 34.6217 22.7178C34.5008 23.2685 33.9569 23.6153 33.413 23.4827C32.9497 23.3705 32.6274 22.9524 32.6274 22.4935V22.5036Z" fill="url(#paint0_linear_1202_9397)"/>
<path d="M12.8254 21.4528H25.1033C25.2141 21.1468 25.3349 20.8409 25.4659 20.5451C26.5235 18.2606 27.9033 15.3642 26.181 13.0185C24.2472 10.3771 22.5853 11.193 20.2989 12.3046C19.473 12.7126 18.6169 13.1307 17.7305 13.3551C17.7104 13.3551 17.6802 13.3755 17.6499 13.3755C17.6197 13.3755 17.5794 13.3959 17.5391 13.3959C17.4586 13.4163 17.3881 13.4265 17.3276 13.4469C16.824 13.5285 16.0283 13.559 16.0283 12.9369C16.0283 12.4576 16.3406 12.2536 16.6327 12.1618C16.8442 12.0905 17.0456 12.0803 17.106 12.0803H17.1363C16.1492 11.6111 15.2931 11.2542 14.4672 11.2542C13.47 11.2542 12.5937 11.8049 11.6973 13.0185C9.92464 15.4254 11.4355 18.2606 12.483 20.5757C12.6139 20.8612 12.7146 21.157 12.8254 21.4528Z" fill="url(#paint1_linear_1202_9397)"/>
<path d="M13.2686 22.7788C13.5707 23.8292 13.8225 24.9103 14.0642 25.9301C14.2959 26.899 14.3261 28.184 15.1117 28.9081C15.3736 29.1529 15.7261 29.2957 16.2096 29.2957C17.5794 29.2957 17.9622 27.205 18.3147 25.7771C18.5967 24.6145 18.8082 24.023 18.9492 24.023C19.0399 24.023 19.2312 24.3289 19.5838 25.7771C19.9363 27.205 20.319 29.2957 21.6888 29.2957C22.1723 29.2957 22.5248 29.1529 22.7867 28.9081C23.3507 28.388 23.532 27.4395 23.7234 26.4401C23.9047 25.4712 24.2371 24.5227 24.4889 23.564C24.5594 23.2989 24.6299 23.0337 24.7004 22.7686H13.2686V22.7788Z" fill="url(#paint2_linear_1202_9397)"/>
<path d="M17.9019 32.6822C18.2141 32.7332 18.5364 32.774 18.8486 32.8046C19.4026 32.8556 19.8155 33.3452 19.7652 33.9061C19.7148 34.467 19.2314 34.8851 18.6774 34.8341C18.3148 34.8036 17.9522 34.7526 17.5795 34.7016C17.0256 34.6098 16.6529 34.0896 16.7436 33.5287C16.7536 33.4369 16.7838 33.3452 16.8241 33.2636C17.0054 32.8556 17.4385 32.6109 17.9019 32.6822Z" fill="url(#paint3_linear_1202_9397)"/>
</g>
<defs>
<linearGradient id="paint0_linear_1202_9397" x1="3.1665" y1="18.6792" x2="34.8332" y2="18.6792" gradientUnits="userSpaceOnUse">
<stop stop-color="#0BD0E6"/>
<stop offset="1" stop-color="#08AABD"/>
</linearGradient>
<linearGradient id="paint1_linear_1202_9397" x1="10.8815" y1="16.3535" x2="26.9968" y2="16.3535" gradientUnits="userSpaceOnUse">
<stop stop-color="#0BD0E6"/>
<stop offset="1" stop-color="#08AABD"/>
</linearGradient>
<linearGradient id="paint2_linear_1202_9397" x1="13.2686" y1="26.0321" x2="24.6903" y2="26.0321" gradientUnits="userSpaceOnUse">
<stop stop-color="#0BD0E6"/>
<stop offset="1" stop-color="#08AABD"/>
</linearGradient>
<linearGradient id="paint3_linear_1202_9397" x1="16.8923" y1="33.1212" x2="19.6287" y2="34.3704" gradientUnits="userSpaceOnUse">
<stop stop-color="#0BD0E6"/>
<stop offset="1" stop-color="#08AABD"/>
</linearGradient>
<clipPath id="clip0_1202_9397">
<rect width="31.6667" height="31.6667" fill="white" transform="translate(3.1665 3.16699)"/>
</clipPath>
</defs>
</svg>
