<svg width="24" height="25" viewBox="0 0 24 25" fill="none" xmlns="http://www.w3.org/2000/svg">
<path d="M15.1082 8.86321C15.1932 10.7089 13.6143 12.3525 11.6791 12.4264C9.63858 12.5041 7.97056 11.0275 7.88554 9.06527C7.80862 7.23901 9.36732 5.60704 11.2459 5.50601C13.2864 5.39333 15.0313 6.87765 15.1082 8.8671V8.86321Z" fill="#999999"/>
<path d="M11.4882 19.6436C9.60934 19.6436 7.73049 19.632 5.85163 19.6514C5.29689 19.6553 4.977 19.2988 5.00129 18.8145C5.07418 17.3847 5.66942 16.1835 6.73842 15.2032C7.84387 14.1881 9.18012 13.6301 10.6945 13.4751C12.5734 13.2814 14.2943 13.696 15.7966 14.8119C16.9223 15.6449 17.6552 16.726 17.9184 18.0783C17.971 18.3534 17.9913 18.6362 17.9994 18.9152C18.0156 19.3453 17.7078 19.6436 17.2584 19.6436C16.3392 19.6475 15.42 19.6436 14.5008 19.6436C14.4563 19.6436 14.4158 19.6436 14.3713 19.6436C13.4116 19.6436 12.4479 19.6436 11.4882 19.6436Z" fill="#999999"/>
</svg>
