<svg width="20" height="20" viewBox="0 0 20 20" fill="none" xmlns="http://www.w3.org/2000/svg">
<g clip-path="url(#clip0_220_6599)">
<path fill-rule="evenodd" clip-rule="evenodd" d="M16.4505 3.50127L16.4908 3.54142L16.4914 3.54208C17.0222 4.06929 17.3672 4.72716 17.4686 5.39173C17.5698 6.05536 17.4298 6.78963 16.8927 7.32554L8.01604 16.1783C7.94705 16.2471 7.86899 16.3014 7.78571 16.341C7.68431 16.4352 7.55797 16.5054 7.41374 16.5402L3.53026 17.4767C3.24999 17.5443 2.95461 17.4627 2.7491 17.2609C2.54359 17.0591 2.45709 16.7657 2.52033 16.485L3.40465 12.5602C3.44457 12.383 3.53836 12.2318 3.66494 12.12C3.69941 12.0625 3.74144 12.0083 3.79103 11.9588L12.6615 3.09971C13.2005 2.56557 13.9354 2.42708 14.6002 2.52885C15.2655 2.6307 15.923 2.9749 16.4505 3.50127ZM13.7794 8.07665L6.88171 14.9558L4.44253 15.544L4.9892 13.1177L11.9072 6.20859L13.7794 8.07665ZM14.9595 6.89972L15.7129 6.14833C15.7848 6.07652 15.8617 5.92208 15.819 5.64215C15.7765 5.36325 15.617 5.0225 15.3139 4.72157L15.3124 4.7201L15.2707 4.67848C14.9682 4.37662 14.6267 4.2172 14.3472 4.17442C14.0682 4.13171 13.9126 4.20686 13.8381 4.28013L13.8373 4.28093L13.0864 5.03084L14.9595 6.89972Z" fill="#606782"/>
</g>
<defs>
<clipPath id="clip0_220_6599">
<rect width="15" height="15" fill="white" transform="translate(2.5 2.5)"/>
</clipPath>
</defs>
</svg>
