<svg width="360" height="340" viewBox="0 0 360 340" fill="none" xmlns="http://www.w3.org/2000/svg">
<rect width="360" height="340" rx="20" fill="#0275B5"/>
<path d="M217.918 121.96C216.41 121.646 214.949 122.633 214.638 124.142C212.325 135.53 209.874 144.561 206.929 152.571C206.733 153.105 206.492 153.767 206.227 154.521C204.57 159.234 199.53 173.559 194.594 173.559C189.657 173.559 187.483 170.645 184.928 167.279C182.512 164.098 179.773 160.5 174.687 160.5C169.602 160.5 166.863 164.098 164.447 167.279C161.881 170.645 159.671 173.559 154.781 173.559C149.891 173.559 144.805 159.223 143.148 154.521C142.883 153.767 142.653 153.105 142.446 152.571C139.489 144.561 137.038 135.53 134.737 124.142C133.885 119.916 133.126 115.784 133.298 111.698C133.77 100.519 143.401 91.4294 154.781 91.4294C157.566 91.4294 160.27 91.9402 162.813 92.9501C166.529 94.4128 170.165 95.1673 173.617 95.1673H175.758C179.21 95.1673 182.846 94.4244 186.562 92.9501C189.105 91.9402 191.809 91.4294 194.594 91.4294C200.14 91.4294 205.433 93.5769 209.518 97.489C210.634 98.557 212.394 98.5105 213.442 97.3845C214.489 96.2585 214.454 94.4824 213.338 93.426C208.218 88.5273 201.567 85.8225 194.594 85.8225C191.107 85.8225 187.724 86.461 184.526 87.7263C181.465 88.9336 178.508 89.5488 175.746 89.5488H173.606C170.844 89.5488 167.899 88.9336 164.838 87.7263C161.65 86.461 158.256 85.8225 154.77 85.8225C140.455 85.8225 128.328 97.3265 127.729 111.466C127.534 116.19 128.351 120.694 129.271 125.268C131.641 136.946 134.161 146.244 137.222 154.533C137.418 155.055 137.636 155.682 137.889 156.402C140.686 164.365 145.898 179.178 154.758 179.178C162.398 179.178 166.115 174.279 168.842 170.703C171.063 167.778 172.432 166.118 174.664 166.118C176.897 166.118 178.266 167.778 180.487 170.703C183.202 174.279 186.93 179.178 194.571 179.178C203.431 179.178 208.643 164.365 211.439 156.402C211.693 155.682 211.911 155.044 212.107 154.533C215.167 146.244 217.687 136.946 220.058 125.268C220.368 123.747 219.39 122.273 217.895 121.96H217.918Z" fill="white"/>
<path d="M204.858 121.693C196.792 129.83 186.079 134.311 174.688 134.311C163.296 134.311 152.584 129.83 144.517 121.693C143.436 120.602 141.675 120.602 140.582 121.693C139.501 122.784 139.501 124.56 140.582 125.663C149.695 134.857 161.812 139.918 174.676 139.918C187.54 139.918 199.657 134.857 208.77 125.663C209.852 124.572 209.852 122.796 208.77 121.693C207.688 120.602 205.928 120.602 204.835 121.693H204.858Z" fill="white"/>
<path d="M230.54 109.295L226.87 107.832L229.954 105.348C231.15 104.385 231.357 102.62 230.391 101.413C229.436 100.206 227.687 99.9968 226.49 100.972L223.406 103.456L222.82 99.5208C222.589 97.9885 221.174 96.9322 219.655 97.1643C218.136 97.3965 217.089 98.8243 217.319 100.357L217.906 104.292L214.236 102.829C212.809 102.26 211.198 102.969 210.634 104.408C210.07 105.847 210.772 107.473 212.199 108.041L215.87 109.504L212.786 111.988C211.589 112.952 211.382 114.716 212.349 115.924C212.901 116.62 213.706 116.98 214.523 116.98C215.133 116.98 215.743 116.783 216.249 116.365L219.333 113.88L219.92 117.816C220.127 119.209 221.312 120.207 222.67 120.207C222.808 120.207 222.946 120.207 223.084 120.172C224.603 119.94 225.65 118.512 225.42 116.98L224.833 113.045L228.504 114.507C228.838 114.635 229.183 114.705 229.516 114.705C230.621 114.705 231.668 114.031 232.105 112.929C232.669 111.489 231.967 109.864 230.54 109.295Z" fill="white"/>
<path d="M85.2539 213.559H66.8848V218.042H79.2554C78.3325 223.425 73.3667 227.82 64.7314 230.171L66.9287 234.521C78.6401 231.269 85.2539 224.018 85.2539 213.559ZM71.7188 250.737H98.2178V235.224H71.7188V250.737ZM77.2119 246.343V239.619H92.6807V246.343H77.2119ZM85.5176 225.337H92.6367V233.642H98.2178V211.274H92.6367V220.766H85.5176V225.337ZM119.004 219.14V218.569H127.046V214.087H105.073V218.569H113.291V219.14C113.291 224.194 110.237 229.402 103.579 231.533L106.479 235.927C111.182 234.367 114.434 231.225 116.257 227.27C118.059 230.874 121.201 233.752 125.684 235.18L128.54 230.786C121.97 228.786 118.982 223.908 119.004 219.14ZM110.083 250.517H137.944V246.035H115.752V237.553H110.083V250.517ZM131.265 240.19H136.89V211.274H131.265V240.19ZM176.001 211.23H170.42V220.195H164.092V224.765H170.42V233.115H176.001V211.23ZM142.075 229.424L144.932 233.818C149.656 232.28 152.842 229.072 154.622 225.073C156.357 228.655 159.412 231.533 163.828 232.983L166.597 228.677C160.554 226.677 157.676 222.063 157.434 217.602H165.366V213.032H143.657V217.602H151.677C151.392 222.48 148.381 227.314 142.075 229.424ZM149.326 250.781H176.001V234.653H170.42V238.432H154.863V234.653H149.326V250.781ZM154.863 246.299V242.739H170.42V246.299H154.863ZM202.412 214.35V212.417H196.523V214.35C196.501 219.074 191.689 224.282 182.593 225.425L184.834 229.951C191.733 228.94 196.831 225.688 199.468 221.382C202.083 225.71 207.202 228.94 214.189 229.951L216.387 225.425C207.224 224.282 202.39 219.074 202.412 214.35ZM181.187 237.553H196.567V251.22H202.104V237.553H217.661V232.983H181.187V237.553ZM251.631 211.23H246.094V251.22H251.631V231.489H257.52V226.875H251.631V211.23ZM219.858 221.689H243.369V217.207H234.536V211.845H228.911V217.207H219.858V221.689ZM221.484 233.467C221.462 239.048 225.813 242.981 231.724 243.003C237.546 242.981 241.919 239.048 241.919 233.467C241.919 227.885 237.546 223.908 231.724 223.93C225.813 223.908 221.462 227.885 221.484 233.467ZM226.846 233.467C226.846 230.39 228.889 228.501 231.724 228.457C234.514 228.501 236.558 230.39 236.558 233.467C236.558 236.565 234.514 238.41 231.724 238.388C228.889 238.41 226.846 236.565 226.846 233.467ZM292.588 211.23H286.919V251.22H292.588V211.23ZM259.102 239.883L262.046 244.365C276.328 237.619 280.569 227.534 280.591 215.405H261.255V219.8H274.878C273.977 228.677 269.429 235.005 259.102 239.883Z" fill="white"/>
</svg>
