<svg width="34" height="34" viewBox="0 0 34 34" fill="none" xmlns="http://www.w3.org/2000/svg">
<g clip-path="url(#clip0_1694_12717)">
<path d="M27.849 4.49998H21.4226C21.1469 3.53844 20.2723 2.83331 19.2297 2.83331H16.1876C15.1482 2.83331 14.2736 3.53844 13.9979 4.49998H7.56831C6.52258 4.49998 5.66699 5.36216 5.66699 6.42306V29.2436C5.66699 30.3045 6.52258 31.1666 7.56831 31.1666H27.849C28.8979 31.1666 29.7503 30.3045 29.7503 29.2436V6.42306C29.7503 5.36216 28.8979 4.49998 27.849 4.49998ZM13.1455 5.78203H13.9979C14.562 5.78203 15.0595 5.40383 15.2148 4.85575C15.2528 4.72434 15.3162 4.60254 15.4017 4.49998C15.5887 4.2628 15.8771 4.11536 16.1876 4.11536H19.2297C19.5434 4.11536 19.8318 4.2628 20.0188 4.49998C20.1043 4.60254 20.1645 4.72434 20.2026 4.85575C20.361 5.40383 20.8553 5.78203 21.4226 5.78203H22.0183V8.47434H13.1455V5.78203ZM28.4828 29.2436C28.4828 29.5961 28.2008 29.8846 27.849 29.8846H7.56831C7.21973 29.8846 6.93454 29.5961 6.93454 29.2436V6.42306C6.93454 6.07049 7.21973 5.78203 7.56831 5.78203H11.878V8.47434C11.878 9.18267 12.4452 9.75639 13.1455 9.75639H22.0183C22.7186 9.75639 23.2859 9.18267 23.2859 8.47434V5.78203H27.849C28.2008 5.78203 28.4828 6.07049 28.4828 6.42306V29.2436Z" fill="#333333"/>
<path d="M28.4828 6.42307V29.2436C28.4828 29.5961 28.2008 29.8846 27.849 29.8846H7.56834C7.21977 29.8846 6.93457 29.5961 6.93457 29.2436V6.42307C6.93457 6.0705 7.21977 5.78204 7.56834 5.78204H11.878V8.47435C11.878 9.18268 12.4452 9.7564 13.1455 9.7564H22.0183C22.7187 9.7564 23.2859 9.18268 23.2859 8.47435V5.78204H27.849C28.2008 5.78204 28.4828 6.0705 28.4828 6.42307Z" fill="white"/>
<path d="M22.0183 5.78202V8.47433H13.1455V5.78202H13.9979C14.562 5.78202 15.0595 5.40382 15.2148 4.85574C15.2528 4.72433 15.3162 4.60254 15.4017 4.49997C15.5887 4.26279 15.8771 4.11536 16.1876 4.11536H19.2297C19.5434 4.11536 19.8318 4.26279 20.0188 4.49997C20.1043 4.60254 20.1645 4.72433 20.2026 4.85574C20.361 5.40382 20.8553 5.78202 21.4226 5.78202H22.0183Z" fill="white"/>
<path d="M24.2718 16.0417C24.1863 13.9006 22.4085 12.1602 20.3139 12.1602C19.8006 12.1602 19.3031 12.2596 18.8341 12.4519C18.4443 12.6122 18.0735 12.6923 17.7281 12.6923H17.4366C17.0912 12.6923 16.7204 12.6122 16.3338 12.4519C15.8617 12.2596 15.3642 12.1602 14.854 12.1602C12.7562 12.1602 10.9785 13.9006 10.8929 16.0417C10.8644 16.734 10.9848 17.4167 11.1084 18.0577C11.4348 19.7276 11.7865 21.0609 12.208 22.2532C12.2365 22.3237 12.265 22.4135 12.2999 22.516C12.8576 24.1635 13.5643 25.9231 14.854 25.9231C16.1437 25.9231 16.6634 24.7179 17.0595 23.8397C17.2053 23.5128 17.4524 22.9679 17.5665 22.8974C17.7155 22.9679 17.9595 23.5128 18.1084 23.8397C18.5045 24.7179 19.0464 25.9231 20.3139 25.9231C21.5815 25.9231 22.3071 24.1635 22.8649 22.516C22.8997 22.4135 22.9314 22.3237 22.9568 22.2532C23.3814 21.0609 23.73 19.7276 24.0563 18.0577C24.1673 17.4808 24.275 16.8718 24.275 16.25C24.275 16.1795 24.275 16.1122 24.2718 16.0417ZM22.8142 17.8077C22.5004 19.4167 22.1645 20.6891 21.7653 21.8173C21.7367 21.8942 21.7051 21.9904 21.667 22.0993C20.8685 24.4583 20.428 24.641 20.3139 24.641C19.8925 24.641 19.6231 24.1122 19.2619 23.3077C18.9038 22.516 18.5013 21.6186 17.5824 21.6186C16.6634 21.6186 16.261 22.516 15.906 23.3077C15.5416 24.1122 15.2723 24.641 14.854 24.641C14.7367 24.641 14.2994 24.4583 13.4977 22.0993C13.4629 21.9904 13.428 21.8942 13.4026 21.8173C13.0002 20.6891 12.6675 19.4167 12.3537 17.8109C12.2397 17.2211 12.1383 16.6474 12.1604 16.0929C12.2207 14.6314 13.428 13.4423 14.854 13.4423C15.2026 13.4423 15.5385 13.5096 15.8553 13.641C16.3972 13.8622 16.9296 13.9743 17.4366 13.9743H17.7281C18.2383 13.9743 18.7707 13.8622 19.3094 13.641C19.6263 13.5096 19.9654 13.4423 20.3139 13.4423C21.0269 13.4423 21.686 13.7404 22.174 14.2179C22.6589 14.6987 22.9758 15.3622 23.0075 16.0929C23.0296 16.6474 22.9282 17.2211 22.8142 17.8077Z" fill="#333333"/>
<path d="M23.0073 16.0929C23.0295 16.6474 22.9281 17.2211 22.814 17.8077C22.5003 19.4166 22.1644 20.6891 21.7651 21.8173C21.7366 21.8942 21.7049 21.9904 21.6669 22.0993C20.8683 24.4583 20.4279 24.641 20.3138 24.641C19.8923 24.641 19.623 24.1122 19.2617 23.3077C18.9036 22.516 18.5012 21.6186 17.5822 21.6186C16.6632 21.6186 16.2608 22.516 15.9059 23.3077C15.5415 24.1122 15.2721 24.641 14.8538 24.641C14.7366 24.641 14.2993 24.4583 13.4976 22.0993C13.4627 21.9904 13.4278 21.8942 13.4025 21.8173C13 20.6891 12.6673 19.4166 12.3536 17.8109C12.2395 17.2211 12.1381 16.6474 12.1603 16.0929C12.2205 14.6314 13.4278 13.4423 14.8538 13.4423C15.2024 13.4423 15.5383 13.5096 15.8552 13.641C16.3971 13.8622 16.9294 13.9743 17.4365 13.9743H17.728C18.2382 13.9743 18.7705 13.8622 19.3092 13.641C19.6261 13.5096 19.9652 13.4423 20.3138 13.4423C21.0268 13.4423 21.6859 13.7404 22.1739 14.2179C22.6587 14.6987 22.9756 15.3622 23.0073 16.0929Z" fill="#7CD1FF"/>
<path d="M16.9636 19.9872C16.8242 19.9872 16.6847 19.9423 16.5706 19.8493L14.6883 18.3365C14.4126 18.1154 14.3683 17.7147 14.5869 17.4359C14.8056 17.157 15.2049 17.1122 15.4774 17.3333L16.9351 18.5032L19.7807 15.8173C20.0374 15.5769 20.4367 15.5897 20.6775 15.8494C20.9151 16.109 20.9025 16.5128 20.6458 16.7564L17.4009 19.8205C17.2805 19.9359 17.1252 19.9936 16.9667 19.9936L16.9636 19.9872Z" fill="#333333"/>
</g>
<defs>
<clipPath id="clip0_1694_12717">
<rect width="24.0833" height="28.3333" fill="white" transform="translate(5.66699 2.83331)"/>
</clipPath>
</defs>
</svg>
