<svg width="98" height="116" viewBox="0 0 98 116" fill="none" xmlns="http://www.w3.org/2000/svg">
<path d="M2 43.0351H95.5733V96C95.5733 105.941 87.5145 114 77.5733 114H20C10.0589 114 2 105.941 2 96V43.0351Z" fill="white" stroke="#BFBFBF" stroke-width="4"/>
<path d="M0 34.7093C0 23.6636 8.95431 14.7093 20 14.7093H77.5733C88.619 14.7093 97.5733 23.6636 97.5733 34.7093V37.3177H0V34.7093Z" fill="#55C2E4"/>
<rect x="17.0391" y="2" width="14.7093" height="26.6085" rx="7.35463" fill="#55C2E4" stroke="white" stroke-width="4"/>
<rect x="67.0156" y="2" width="14.7093" height="26.6085" rx="7.35463" fill="#55C2E4" stroke="white" stroke-width="4"/>
<path d="M37.0361 65.519H21.5801V67.393H28.334V70.3061H30.6719V67.393H37.0361V65.519ZM23.3984 73.7573H35.3291V71.8647H25.7549V68.8403H23.3984V73.7573ZM23.5098 64.1274H35.0508V57.9116H23.5098V64.1274ZM25.8291 62.2905V59.7485H32.7314V62.2905H25.8291ZM43.7514 60.5092V60.268H47.147V58.3755H37.8696V60.268H41.3393V60.5092C41.3393 62.643 40.0498 64.8418 37.2388 65.7417L38.4634 67.5971C40.4487 66.9384 41.8218 65.6118 42.5918 63.9419C43.3525 65.4633 44.6792 66.6787 46.5718 67.2817L47.7778 65.4262C45.0039 64.582 43.7422 62.5224 43.7514 60.5092ZM39.9848 73.7573H51.7485V71.8647H42.3784V68.2837H39.9848V73.7573ZM48.9282 69.3969H51.3032V57.188H48.9282V69.3969ZM68.1865 70.2876H64.2714V67.0776H66.8134V65.1665H64.5127V60.4165H66.8877V58.5239H53.9365V60.4165H56.2744V65.1665H54.0107V67.0776H56.5713V70.2876H52.7304V72.1801H68.1865V70.2876ZM58.6494 65.1665V60.4165H62.1748V65.1665H58.6494ZM58.9463 70.2876V67.0776H61.8964V70.2876H58.9463ZM31.0244 81.2827H22.0254V83.1753H23.3984V87.9253C22.7676 87.9345 22.1553 87.9438 21.5986 87.9438L21.8398 89.8549C24.521 89.8549 28.2041 89.79 31.377 89.2612L31.2842 87.5171C30.7554 87.582 30.1987 87.6377 29.6328 87.6748V83.1753H31.0244V81.2827ZM24.252 93.9184C24.252 95.8852 26.4414 97.0634 30.0596 97.0542C33.687 97.0634 35.8765 95.8852 35.8857 93.9184C35.8765 91.896 33.687 90.7549 30.0596 90.7456C26.4414 90.7549 24.252 91.896 24.252 93.9184ZM25.6807 87.8789V83.1753H27.3691V87.8232C26.8032 87.8418 26.2373 87.8696 25.6807 87.8789ZM26.6084 93.9184C26.6084 93 27.8052 92.5547 30.0596 92.5639C32.314 92.5547 33.52 93 33.5293 93.9184C33.52 94.8091 32.314 95.2544 30.0596 95.2544C27.8052 95.2544 26.6084 94.8091 26.6084 93.9184ZM31.3955 87.9624H33.4736V90.4858H35.8301V80.1694H33.4736V82.9155H31.3955V84.771H33.4736V86.0698H31.3955V87.9624ZM50.4868 80.1694H48.1118V97.0171H50.4868V88.5932H52.8804V86.645H50.4868V80.1694ZM36.979 92.2856L38.3149 94.104C43.9927 91.3115 45.9595 86.9419 45.978 81.895H37.9438V83.8247H43.5752C43.1299 87.5913 40.9775 90.2817 36.979 92.2856Z" fill="#222222"/>
</svg>
