<svg width="34" height="34" viewBox="0 0 34 34" fill="none" xmlns="http://www.w3.org/2000/svg">
<g clip-path="url(#clip0_1694_12699)">
<path d="M9.2832 4.13678V14.9523L17.0003 20.1564L24.7174 14.9523V4.13678H9.2832ZM16.0306 12.1205L13.4504 14.6688C13.3196 14.7992 13.1451 14.8643 12.9706 14.8643C12.8129 14.8643 12.6519 14.8089 12.5244 14.7014L10.783 13.2057C10.5045 12.9678 10.481 12.5539 10.726 12.2867C10.9709 12.0163 11.397 11.9902 11.6722 12.2313L12.9371 13.3165L15.071 11.2081C15.3327 10.9507 15.7555 10.9474 16.0206 11.2016C16.2856 11.4525 16.289 11.8664 16.0273 12.1238L16.0306 12.1205ZM16.0306 7.81582L13.4504 10.3641C13.3196 10.4945 13.1451 10.5596 12.9706 10.5596C12.8129 10.5596 12.6519 10.5042 12.5277 10.3967L10.7864 8.90096C10.5079 8.66308 10.481 8.24923 10.7293 7.98202C10.9743 7.71155 11.4004 7.68548 11.6755 7.92662L12.9404 9.01176L15.0744 6.9034C15.3361 6.64596 15.7589 6.6427 16.0239 6.89688C16.289 7.1478 16.2923 7.56165 16.0306 7.81908V7.81582ZM18.0069 8.51318H22.2043C22.5734 8.51318 22.8754 8.80646 22.8754 9.16492C22.8754 9.52337 22.5734 9.81665 22.2043 9.81665H18.0069C17.6378 9.81665 17.3358 9.52337 17.3358 9.16492C17.3358 8.80646 17.6378 8.51318 18.0069 8.51318ZM22.2043 14.1214H18.0069C17.6378 14.1214 17.3358 13.8281 17.3358 13.4696C17.3358 13.1112 17.6378 12.8179 18.0069 12.8179H22.2043C22.5734 12.8179 22.8754 13.1112 22.8754 13.4696C22.8754 13.8281 22.5734 14.1214 22.2043 14.1214Z" fill="#7CD1FF"/>
<path d="M9.00069 10.7877L7.94043 11.5209V14.0497L9.28253 14.9556V4.13678H24.7167V14.9523L26.0588 14.0464V11.5177L24.9986 10.7845L25.777 9.72215L26.0588 9.91768V3.48505C26.0588 3.12659 25.7569 2.83331 25.3878 2.83331H8.61148C8.2424 2.83331 7.94043 3.12659 7.94043 3.48505V9.92093L8.22227 9.72541L9.00069 10.7877V10.7877Z" fill="#333333"/>
<path d="M9.54476 16.7153L8.22949 15.8289L9.54476 16.7153Z" fill="#333333"/>
<path d="M25.7703 15.8289L24.4551 16.7153L25.7703 15.8289Z" fill="#333333"/>
<path d="M15.0744 11.2081L12.9404 13.3165L11.6755 12.2313C11.397 11.9934 10.9742 12.0195 10.7293 12.2867C10.4844 12.5572 10.5112 12.9678 10.7863 13.2057L12.5277 14.7014C12.6552 14.8122 12.8129 14.8643 12.974 14.8643C13.1484 14.8643 13.3229 14.7992 13.4538 14.6688L16.034 12.1205C16.2923 11.8631 16.289 11.4525 16.0273 11.1983C15.7622 10.9474 15.3394 10.9507 15.0777 11.2048L15.0744 11.2081Z" fill="#333333"/>
<path d="M22.2044 12.8179H18.007C17.6379 12.8179 17.3359 13.1112 17.3359 13.4696C17.3359 13.8281 17.6379 14.1213 18.007 14.1213H22.2044C22.5735 14.1213 22.8755 13.8281 22.8755 13.4696C22.8755 13.1112 22.5735 12.8179 22.2044 12.8179Z" fill="#333333"/>
<path d="M15.0744 6.9034L12.9404 9.01177L11.6755 7.92663C11.397 7.68875 10.9742 7.71481 10.7293 7.98203C10.4844 8.2525 10.5112 8.66309 10.7863 8.90097L12.5277 10.3967C12.6552 10.5075 12.8129 10.5596 12.9706 10.5596C13.1451 10.5596 13.3196 10.4945 13.4504 10.3641L16.0306 7.81583C16.289 7.5584 16.2856 7.1478 16.0239 6.89363C15.7588 6.64271 15.3361 6.64597 15.0744 6.90015V6.9034Z" fill="#333333"/>
<path d="M18.007 9.81665H22.2044C22.5735 9.81665 22.8755 9.52337 22.8755 9.16492C22.8755 8.80646 22.5735 8.51318 22.2044 8.51318H18.007C17.6379 8.51318 17.3359 8.80646 17.3359 9.16492C17.3359 9.52337 17.6379 9.81665 18.007 9.81665Z" fill="#333333"/>
<path d="M29.4648 12.2802L28.6897 13.336L27.9113 12.7983L26.0592 14.0464L24.7171 14.9523L17 20.1564L9.28289 14.9523L7.94079 14.0464L6.08868 12.7983L5.31026 13.336L4.5352 12.2802C4.36072 12.4008 4.25 12.593 4.25 12.8049V29.0982C4.25 29.4567 4.55197 29.75 4.92105 29.75H29.0789C29.448 29.75 29.75 29.4567 29.75 29.0982V12.8049C29.75 12.593 29.6393 12.4008 29.4648 12.2802V12.2802ZM5.59211 14.0497L8.22934 15.8289L9.54461 16.7153L15.8257 20.9516L5.59211 27.8534V14.0497ZM7.06507 28.4465L17 21.7434L26.9349 28.4465H7.06507ZM28.4079 27.8534L18.1777 20.9516L24.4587 16.7153L25.774 15.8289L28.4113 14.0497V27.8502L28.4079 27.8534Z" fill="#333333"/>
<path d="M6.08907 12.7983L7.94117 11.5209L9.00144 10.7877L8.22302 9.7254L7.94117 9.92092L4.53223 12.2737L4.53558 12.2802L5.31065 13.336L6.08907 12.7983Z" fill="#333333"/>
<path d="M24.999 10.7877L26.0593 11.5209L27.9114 12.7983L28.6898 13.336L29.4649 12.2802L29.4682 12.2737L26.0593 9.92092L25.7774 9.7254L24.999 10.7877Z" fill="#333333"/>
</g>
<defs>
<clipPath id="clip0_1694_12699">
<rect width="25.5" height="26.9167" fill="white" transform="translate(4.25 2.83331)"/>
</clipPath>
</defs>
</svg>
