<svg width="20" height="20" viewBox="0 0 20 20" fill="none" xmlns="http://www.w3.org/2000/svg">
<path fill-rule="evenodd" clip-rule="evenodd" d="M4.5115 10.0801C4.30104 9.84489 4.13312 9.56756 4.02202 9.25812L2.45229 4.88615C1.93788 3.45344 3.45535 2.13771 4.80072 2.84996L17.0663 9.34348C17.3439 9.49045 17.51 9.77709 17.5098 10.0805C17.5097 10.3836 17.3436 10.6698 17.0663 10.8166L4.80072 17.3102C3.45535 18.0224 1.93788 16.7067 2.45229 15.274L4.02202 10.902C4.13312 10.5926 4.30104 10.3152 4.5115 10.0801ZM4.02091 4.32294L13.3212 9.24664L6.37495 9.24664C6.02329 9.24664 5.70948 9.02589 5.59064 8.69491L4.02091 4.32294ZM4.02091 15.8372L13.3212 10.9135L6.37495 10.9135C6.02329 10.9135 5.70948 11.1342 5.59064 11.4652L4.02091 15.8372Z" fill="#606782"/>
</svg>
