<svg width="48" height="48" viewBox="0 0 48 48" fill="none" xmlns="http://www.w3.org/2000/svg">
<path fill-rule="evenodd" clip-rule="evenodd" d="M24 10C16.2646 10 10 16.2646 10 24C10 31.7354 16.2646 38 24 38C31.7354 38 38 31.7354 38 24C38 22.6682 37.8238 21.4015 37.4854 20.2039C37.185 19.141 37.8031 18.0358 38.8661 17.7354C39.929 17.435 41.0342 18.0531 41.3346 19.1161C41.7762 20.6785 42 22.3118 42 24C42 33.9446 33.9446 42 24 42C14.0554 42 6 33.9446 6 24C6 14.0554 14.0554 6 24 6C26.9348 6 29.7149 6.70893 32.1675 7.95773C33.1518 8.45892 33.5435 9.66317 33.0423 10.6475C32.5411 11.6318 31.3368 12.0235 30.3525 11.5223C28.4451 10.5511 26.2852 10 24 10ZM22.996 24.6328L17.2871 18.9239C16.506 18.1429 15.2397 18.1429 14.4586 18.9239C13.6776 19.705 13.6776 20.9713 14.4586 21.7523L21.5297 28.8234C21.969 29.2628 22.5619 29.455 23.1356 29.4001C23.6448 29.3904 24.1505 29.1874 24.5332 28.793L39.8515 13.0022C40.6206 12.2094 40.6014 10.9432 39.8086 10.1741C39.0157 9.40503 37.7496 9.42426 36.9805 10.2171L22.996 24.6328Z" fill="#999999"/>
</svg>
