<svg width="48" height="48" viewBox="0 0 48 48" fill="none" xmlns="http://www.w3.org/2000/svg">
<path d="M33.9875 42H14.0558C12.9862 42 12.1066 41.16 12.0566 40.09C11.9167 37.04 11.9367 33.09 12.8263 31.6C12.9262 31.43 12.9962 31.29 13.0662 31.15C13.7359 29.84 14.4756 28.76 18.9937 24.87C19.0337 24.84 19.0737 24.8 19.1137 24.77C19.1736 24.67 19.3136 24.35 19.3436 23.65C19.1237 23.3 18.364 22.3 15.995 20.37C15.6651 20.11 12.3865 17.47 12.1266 13.67C12.1266 13.63 12.1266 13.59 12.1266 13.56L12.0566 8.03001C12.0566 7.49001 12.2565 6.98001 12.6364 6.60001C13.0162 6.22001 13.526 6.01001 14.0558 6.01001H33.9875C35.087 6.01001 35.9866 6.91001 35.9866 8.01001V13.66C35.9866 13.94 35.9866 17.04 32.3881 20.25C32.3581 20.28 32.3182 20.31 32.2782 20.34C30.7688 21.51 29.1995 23.03 28.7596 23.72C28.7896 23.93 28.8196 24.1 28.8296 24.25C28.8396 24.34 28.8496 24.41 28.8596 24.48C28.8596 24.44 28.9496 24.59 29.3894 25.08C29.6593 25.38 30.209 25.85 30.7888 26.35C32.728 28.01 35.137 30.08 35.5868 32.51C36.0766 35.11 35.9766 39.84 35.9666 40.04C35.9466 41.13 35.057 42 33.9675 42H33.9875ZM16.005 38H31.9983C31.9783 36.43 31.8983 34.45 31.6784 33.25C31.4785 32.2 29.3494 30.38 28.1999 29.39C27.4902 28.78 26.8704 28.25 26.4306 27.76C25.3111 26.51 25.0212 25.95 24.8713 24.74C24.8513 24.57 24.8213 24.37 24.7713 24.1C24.6314 23.39 24.2515 21.5 29.7792 17.21C31.8683 15.32 31.9983 13.72 31.9983 13.71V9.99001H16.0849L16.1249 13.44C16.2748 15.13 17.8842 16.75 18.5039 17.24C21.1928 19.43 23.7617 21.87 23.3419 23.89C23.222 26.44 22.1324 27.55 21.5027 27.99C17.3444 31.58 16.9845 32.29 16.6247 32.98C16.5147 33.19 16.4048 33.41 16.2549 33.65C16.0949 34.08 15.985 35.93 15.995 37.99L16.005 38Z" fill="#0275B5"/>
</svg>
